<svg width="24" height="24" viewBox="0 0 24 24" fill="none" xmlns="http://www.w3.org/2000/svg">
<path fill-rule="evenodd" clip-rule="evenodd" d="M16.0885 19.3654C16.1084 19.3837 16.1258 19.4045 16.1397 19.4279L16.1432 19.4331C16.1449 19.4375 16.1475 19.4409 16.1492 19.4453L16.1518 19.4505V19.4531L16.1536 19.4566L16.1553 19.4609H16.1545C16.177 19.5165 16.1796 19.579 16.1623 19.6363L16.1605 19.6415V19.6432L16.1588 19.6484V19.6493L16.1571 19.6536V19.6562L16.1553 19.6606V19.6623L16.1536 19.6666C16.1518 19.671 16.1501 19.6744 16.1484 19.6779V19.6771C16.1232 19.7274 16.0833 19.7682 16.0338 19.7934C15.4383 20.105 14.809 20.3455 14.1588 20.5113L14.1545 20.5442C14.1458 20.6154 14.1362 20.6875 14.1276 20.7587L14.1267 20.7578C14.0885 21.0911 13.9418 21.4027 13.7092 21.6441C13.4843 21.8732 13.1753 22.0017 12.8541 22H11.1024C10.7795 22.0017 10.4687 21.8724 10.243 21.6415C10.0095 21.401 9.86367 21.0885 9.82894 20.7552L9.80029 20.5V20.5009C9.00081 20.2943 8.23432 19.9748 7.5243 19.5529L7.50607 19.5677C7.45225 19.6102 7.5052 19.5677 7.34201 19.6953C7.08072 19.9054 6.75695 20.0226 6.42188 20.0286C6.09984 20.0321 5.78993 19.9045 5.56251 19.6754L4.3238 18.4366H4.32467C4.09551 18.2101 3.96789 17.9002 3.97138 17.5781C3.97832 17.2431 4.09464 16.9193 4.30211 16.6563L4.44447 16.4714C4.01738 15.75 3.69534 14.9714 3.48874 14.1589L3.45575 14.1546L3.24135 14.1277L3.24221 14.1268C2.90888 14.0886 2.59726 13.9419 2.35593 13.7093C2.12677 13.4845 1.99828 13.1755 2.00002 12.8543V11.1025C1.99828 10.7796 2.12762 10.4688 2.35853 10.2432C2.59984 10.0096 2.91148 9.86382 3.24568 9.82909L3.50088 9.80044C3.70834 8.99489 4.03039 8.22405 4.45574 7.50956L4.3021 7.31078C4.09376 7.04862 3.97745 6.72485 3.97136 6.38978C3.96876 6.0686 4.09636 5.75958 4.32465 5.53301L5.56336 4.2943C5.79078 4.06426 6.10156 3.93666 6.42447 3.93926C6.7604 3.94533 7.08331 4.06252 7.34373 4.27432C7.52168 4.41495 7.45658 4.36286 7.51821 4.41148L7.54686 4.43404C8.24999 4.01911 9.00779 3.70489 9.79774 3.50089L9.80208 3.46357C9.81423 3.36287 9.82291 3.29082 9.82899 3.24308C9.86545 2.91061 10.0121 2.59899 10.2448 2.35766C10.4705 2.12675 10.7804 1.99828 11.1024 2.00002H12.8542C13.1753 1.99828 13.4835 2.12589 13.7092 2.35593C13.941 2.59724 14.0877 2.90801 14.1267 3.24048L14.1588 3.48875C14.5625 3.59118 14.9592 3.72312 15.3446 3.88197C15.7318 4.04169 16.1068 4.22919 16.467 4.44185L16.5052 4.41234C16.5443 4.38196 16.5295 4.39324 16.6892 4.27085H16.6883C16.9514 4.06251 17.2751 3.9462 17.6102 3.94011C17.9314 3.93664 18.2404 4.06425 18.467 4.29254L19.7057 5.53124C19.9357 5.75866 20.0633 6.06944 20.0607 6.39322C20.0547 6.72828 19.9366 7.05119 19.7248 7.31075C19.5764 7.49825 19.6241 7.43835 19.5816 7.49217L19.5538 7.52689C19.9748 8.23522 20.2925 8.99998 20.4991 9.79777L20.5364 9.80211L20.7569 9.82902H20.7561C21.0894 9.86548 21.401 10.0122 21.6423 10.2448C21.8732 10.4705 22.0017 10.7804 22 11.1025V12.8542C22.0017 13.1754 21.8741 13.4835 21.6441 13.7092C21.4028 13.941 21.092 14.0877 20.7595 14.1268L20.5113 14.1589C20.4418 14.4323 20.3611 14.6988 20.2682 14.9592V14.9584C20.1527 15.2795 20.0199 15.5938 19.868 15.8993C19.8029 16.0295 19.6441 16.0834 19.5121 16.02C19.4835 16.0052 19.4574 15.9861 19.4357 15.9618L17.6041 14.1216C17.5616 14.079 17.5347 14.0226 17.5286 13.9619V13.9089V13.9098C17.5303 13.8863 17.5355 13.8638 17.5434 13.8429C17.6414 13.5487 17.7152 13.2466 17.7656 12.9402C17.8142 12.6294 17.8385 12.3152 17.8376 12.0001C17.8376 10.4523 17.2222 8.96717 16.1276 7.87251C15.0329 6.77785 13.5478 6.16245 12 6.16245C10.4522 6.16245 8.96714 6.77789 7.87248 7.87251C6.77782 8.96713 6.16242 10.4523 6.16242 12.0001C6.16242 13.5478 6.77786 15.0329 7.87248 16.1276C8.9671 17.2223 10.4522 17.8377 12 17.8377C12.3325 17.8377 12.6641 17.8099 12.9913 17.7543C13.3168 17.6979 13.6372 17.6146 13.9488 17.5043C14.0478 17.4696 14.158 17.4965 14.23 17.5729L16.0885 19.3654ZM19.5485 15.3245C19.6266 15.1466 19.6995 14.9652 19.7655 14.7794H19.7663C19.8722 14.4826 19.9617 14.1813 20.0328 13.8749C20.0528 13.7586 20.1457 13.6692 20.2629 13.6544C20.5181 13.6223 20.3575 13.6431 20.4764 13.6284L20.69 13.6006C20.9061 13.5763 21.1084 13.4825 21.2664 13.3333C21.3948 13.2074 21.4677 13.0346 21.4669 12.855V11.1024C21.4677 10.9218 21.3948 10.7491 21.2664 10.6223C21.1092 10.473 20.9079 10.3802 20.6917 10.3576L20.4738 10.3307L20.2612 10.3055C20.1474 10.2951 20.0528 10.2126 20.0268 10.1015C19.8219 9.23346 19.4764 8.40446 19.0042 7.64751C18.9452 7.55202 18.953 7.42876 19.0233 7.34109L19.1657 7.16314C19.3037 6.99039 19.2542 7.05203 19.3089 6.98432H19.308C19.4452 6.81765 19.5216 6.60932 19.5268 6.39405C19.5285 6.21176 19.4573 6.03728 19.328 5.90881L18.0893 4.6701C17.9626 4.5425 17.7889 4.47132 17.6092 4.47392C17.3914 4.47913 17.1822 4.55552 17.012 4.69181C16.9747 4.72045 16.9912 4.7083 16.8297 4.8333C16.6474 4.97479 16.7091 4.92618 16.6613 4.96351H16.6622C16.5737 5.0425 16.4443 5.05291 16.3445 4.99128C15.5823 4.51733 14.7481 4.17184 13.8741 3.96871C13.7577 3.94961 13.6683 3.85586 13.6536 3.73867C13.6215 3.4826 13.6423 3.64318 13.6275 3.52513C13.6215 3.47999 13.6128 3.40967 13.5998 3.31158C13.5772 3.09457 13.4834 2.89145 13.3333 2.73345C13.2074 2.60498 13.0346 2.53206 12.855 2.53293H11.1024C10.9218 2.53207 10.7491 2.60498 10.6223 2.73345C10.473 2.89057 10.3802 3.09196 10.3576 3.30809L10.3307 3.52598L10.3055 3.73865C10.2951 3.85236 10.2126 3.94698 10.1015 3.97303C9.24473 4.17528 8.42616 4.51382 7.67707 4.97562C7.58072 5.04333 7.45138 5.03812 7.35936 4.96434L7.18749 4.82805C7.01127 4.68743 7.07638 4.73951 7.01561 4.69003C6.84895 4.55375 6.64148 4.47649 6.42535 4.47128C6.24392 4.46955 6.06857 4.5416 5.94097 4.67007L4.70226 5.90877C4.57379 6.03638 4.50348 6.20913 4.50522 6.38968C4.51042 6.6067 4.58768 6.81677 4.72396 6.98604L4.85764 7.15791L4.97917 7.31329H4.9783C5.0573 7.40183 5.06771 7.53031 5.00608 7.631C4.52866 8.39229 4.18057 9.22735 3.97397 10.1023C3.94793 10.2117 3.85592 10.2933 3.74482 10.3063L3.52607 10.3306L3.30732 10.3558C3.09291 10.3766 2.89152 10.4686 2.73614 10.618C2.60594 10.7456 2.53215 10.92 2.53302 11.1023V12.8541C2.53215 13.0346 2.60507 13.2073 2.73354 13.3332C2.89066 13.4825 3.09378 13.5763 3.30905 13.5997L3.52346 13.6275C3.64499 13.6431 3.46877 13.6205 3.737 13.6526C3.84811 13.6665 3.93926 13.7481 3.96442 13.8575C4.16668 14.7386 4.51477 15.5806 4.99306 16.3479C5.05209 16.4426 5.04601 16.5641 4.97744 16.6518L4.8507 16.815L4.72397 16.9799H4.7231C4.58768 17.15 4.51043 17.3592 4.50522 17.5771C4.50261 17.7568 4.57379 17.9304 4.7014 18.0572L5.9401 19.2959C6.06771 19.4243 6.24133 19.4955 6.42275 19.4938C6.63889 19.4877 6.8481 19.4113 7.0165 19.275C7.07032 19.2325 7.0165 19.275 7.17883 19.1474C7.36546 19.0007 7.27084 19.0762 7.3264 19.0328L7.32553 19.032C7.41407 18.9521 7.54428 18.9391 7.64584 19.0025C8.40452 19.4747 9.23437 19.821 10.1041 20.0259C10.2143 20.0511 10.2959 20.1431 10.308 20.2551L10.3324 20.4738L10.3575 20.6926C10.3792 20.907 10.4712 21.1083 10.6197 21.2637C10.7473 21.3939 10.9218 21.4669 11.1032 21.466H12.8549C13.0346 21.4669 13.2073 21.3948 13.3332 21.2663C13.4825 21.1092 13.5763 20.9061 13.5997 20.6908C13.6092 20.6196 13.6179 20.5476 13.6275 20.4764C13.6414 20.3627 13.6214 20.5189 13.6526 20.2629C13.6665 20.1518 13.7481 20.0606 13.8575 20.0355C14.1926 19.9582 14.5216 19.8601 14.8445 19.7421C15.0519 19.6657 15.2551 19.5823 15.453 19.4903L13.9677 18.0589V18.058C13.6778 18.1527 13.3801 18.2256 13.0789 18.2777C12.723 18.3384 12.3618 18.3697 11.9999 18.3697C10.203 18.3679 8.49121 17.6075 7.28632 16.2751C6.0806 14.9435 5.49466 13.164 5.67262 11.3757C5.8497 9.58841 6.77504 7.95908 8.2195 6.89042C9.66307 5.82185 11.4913 5.413 13.2533 5.76542C15.0145 6.11785 16.5448 7.19857 17.4668 8.7403C18.3887 10.282 18.6161 12.1423 18.0918 13.8601L19.5485 15.3245ZM15.0258 13.1726C14.9503 13.0971 14.9269 12.9825 14.9677 12.8836C15.1543 12.3246 15.1821 11.7247 15.0493 11.1501C14.7585 9.9131 13.7585 8.96693 12.5068 8.74653C11.9912 8.65712 11.4608 8.69531 10.9634 8.85764L12.9686 10.8628C13.0719 10.967 13.0719 11.1354 12.9686 11.2387L11.3237 12.8836C11.2195 12.9869 11.052 12.9869 10.9478 12.8836L8.94261 10.8785C8.78028 11.3767 8.74209 11.9062 8.8315 12.4218C9.05198 13.6736 9.99729 14.6736 11.235 14.9643C11.8088 15.098 12.4095 15.0693 12.9685 14.8827C13.0675 14.8419 13.1812 14.8653 13.2567 14.9408L19.2767 20.9608C19.7654 21.4487 20.5571 21.4487 21.0449 20.9608C21.5337 20.4721 21.5337 19.6804 21.0449 19.1917L15.0258 13.1726ZM15.5154 12.9114C15.7827 11.9947 15.6864 11.0103 15.2454 10.1631C14.8053 9.31679 14.0553 8.67271 13.1517 8.36453C12.248 8.05724 11.2602 8.1102 10.3948 8.51297C10.3106 8.54509 10.249 8.618 10.2299 8.70568C10.2116 8.79422 10.2386 8.88536 10.3019 8.94961L12.4035 11.0512L11.1353 12.3194L9.03371 10.2178L9.03458 10.217C8.97034 10.1536 8.8792 10.1267 8.79064 10.1458C8.70297 10.164 8.63005 10.2256 8.59794 10.3098C8.19516 11.1753 8.1422 12.1623 8.4495 13.0658C8.75679 13.9695 9.40087 14.7195 10.2481 15.1604C11.0945 15.6006 12.078 15.6978 12.9946 15.4313L18.9008 21.3366C19.5969 22.0328 20.7254 22.0328 21.4216 21.3366C22.1178 20.6404 22.1178 19.512 21.4216 18.8157L15.5154 12.9114Z" fill="#373D3F" stroke="#373D3F" stroke-width="0.2"/>
</svg>
