<svg width="16" height="19" viewBox="0 0 16 19" fill="none" xmlns="http://www.w3.org/2000/svg">
<mask id="path-1-inside-1_320_8298" fill="white">
<path d="M14.1115 16.2441H1.88909C1.15749 16.2441 0.505848 15.8342 0.188463 15.1745C-0.128297 14.5141 -0.0414533 13.75 0.416505 13.1783L0.458365 13.1265C0.895706 12.5804 1.13749 11.8907 1.13749 11.1878V6.8725C1.13812 3.08325 4.22137 0 8.01062 0C11.7999 0 14.8831 3.08325 14.8831 6.8725V11.214C14.8831 11.9238 15.1299 12.6179 15.576 13.1696C16.0383 13.7394 16.1302 14.506 15.814 15.1689C15.4979 15.8317 14.8463 16.2441 14.1115 16.2441ZM8.01062 1.24955C4.9105 1.24955 2.38766 3.77238 2.38766 6.8725V11.1878C2.38766 12.1737 2.04841 13.1408 1.43176 13.9093L1.3899 13.9612C1.23496 14.1549 1.20622 14.4066 1.31493 14.6328C1.42364 14.859 1.63794 14.9939 1.88847 14.9939H14.1115C14.3627 14.9939 14.5782 14.8583 14.6863 14.6309C14.795 14.4041 14.7644 14.1511 14.6063 13.9562C13.9791 13.1833 13.6336 12.2087 13.6336 11.2134V6.87188C13.6336 3.77175 11.1114 1.24955 8.01062 1.24955Z"/>
</mask>
<path d="M14.1115 16.2441H1.88909C1.15749 16.2441 0.505848 15.8342 0.188463 15.1745C-0.128297 14.5141 -0.0414533 13.75 0.416505 13.1783L0.458365 13.1265C0.895706 12.5804 1.13749 11.8907 1.13749 11.1878V6.8725C1.13812 3.08325 4.22137 0 8.01062 0C11.7999 0 14.8831 3.08325 14.8831 6.8725V11.214C14.8831 11.9238 15.1299 12.6179 15.576 13.1696C16.0383 13.7394 16.1302 14.506 15.814 15.1689C15.4979 15.8317 14.8463 16.2441 14.1115 16.2441ZM8.01062 1.24955C4.9105 1.24955 2.38766 3.77238 2.38766 6.8725V11.1878C2.38766 12.1737 2.04841 13.1408 1.43176 13.9093L1.3899 13.9612C1.23496 14.1549 1.20622 14.4066 1.31493 14.6328C1.42364 14.859 1.63794 14.9939 1.88847 14.9939H14.1115C14.3627 14.9939 14.5782 14.8583 14.6863 14.6309C14.795 14.4041 14.7644 14.1511 14.6063 13.9562C13.9791 13.1833 13.6336 12.2087 13.6336 11.2134V6.87188C13.6336 3.77175 11.1114 1.24955 8.01062 1.24955Z" fill="white"/>
<path d="M0.188463 15.1745L-1.164 15.8232L-1.16326 15.8247L0.188463 15.1745ZM0.416505 13.1783L-0.750681 12.2362L-0.754174 12.2405L0.416505 13.1783ZM0.458365 13.1265L1.62555 14.0687L1.62915 14.0642L0.458365 13.1265ZM1.13749 6.8725L-0.362507 6.87225V6.8725H1.13749ZM15.576 13.1696L14.4096 14.1127L14.4112 14.1147L15.576 13.1696ZM1.43176 13.9093L2.59894 14.8515L2.60167 14.8481L1.43176 13.9093ZM1.3899 13.9612L0.222712 13.019L0.218598 13.0241L1.3899 13.9612ZM14.6863 14.6309L13.3337 13.9826L13.3315 13.987L14.6863 14.6309ZM14.6063 13.9562L15.7714 13.0114L15.771 13.0109L14.6063 13.9562ZM14.1115 14.7441H1.88909V17.7441H14.1115V14.7441ZM1.88909 14.7441C1.73444 14.7441 1.60793 14.665 1.54019 14.5242L-1.16326 15.8247C-0.59623 17.0035 0.580531 17.7441 1.88909 17.7441V14.7441ZM1.54093 14.5258C1.47301 14.3842 1.49042 14.2369 1.58718 14.1162L-0.754174 12.2405C-1.57333 13.2631 -1.7296 14.644 -1.164 15.8232L1.54093 14.5258ZM1.58368 14.1205L1.62554 14.0687L-0.708813 12.1843L-0.750672 12.2362L1.58368 14.1205ZM1.62915 14.0642C2.28045 13.251 2.63749 12.2302 2.63749 11.1878H-0.362507C-0.362507 11.5512 -0.489033 11.9099 -0.712415 12.1888L1.62915 14.0642ZM2.63749 11.1878V6.8725H-0.362507V11.1878H2.63749ZM2.63749 6.87275C2.63798 3.91169 5.04985 1.5 8.01062 1.5V-1.5C3.3929 -1.5 -0.361745 2.25482 -0.362507 6.87225L2.63749 6.87275ZM8.01062 1.5C10.9714 1.5 13.3831 3.91168 13.3831 6.8725H16.3831C16.3831 2.25483 12.6283 -1.5 8.01062 -1.5V1.5ZM13.3831 6.8725V11.214H16.3831V6.8725H13.3831ZM13.3831 11.214C13.3831 12.2688 13.7487 13.2955 14.4096 14.1127L16.7424 12.2264C16.5111 11.9404 16.3831 11.5788 16.3831 11.214H13.3831ZM14.4112 14.1147C14.5095 14.2358 14.5268 14.3835 14.4601 14.5232L17.1679 15.8146C17.7336 14.6285 17.5672 13.243 16.7408 12.2245L14.4112 14.1147ZM14.4601 14.5232C14.3922 14.6655 14.2665 14.7441 14.1115 14.7441V17.7441C15.426 17.7441 16.6036 16.998 17.1679 15.8146L14.4601 14.5232ZM8.01062 -0.250454C4.08207 -0.250454 0.887664 2.94395 0.887664 6.8725H3.88766C3.88766 4.60081 5.73892 2.74955 8.01062 2.74955V-0.250454ZM0.887664 6.8725V11.1878H3.88766V6.8725H0.887664ZM0.887664 11.1878C0.887664 11.8333 0.664266 12.469 0.261851 12.9705L2.60167 14.8481C3.43256 13.8126 3.88766 12.5141 3.88766 11.1878H0.887664ZM0.264583 12.9671L0.222724 13.019L2.55708 14.9034L2.59894 14.8515L0.264583 12.9671ZM0.218598 13.0241C-0.298765 13.6708 -0.393987 14.5399 -0.0370061 15.2826L2.66686 13.983C2.80642 14.2733 2.76868 14.6389 2.5612 14.8982L0.218598 13.0241ZM-0.0370061 15.2826C0.320905 16.0273 1.05999 16.4939 1.88847 16.4939V13.4939C2.03683 13.4939 2.19923 13.5353 2.34776 13.6288C2.49624 13.7223 2.60316 13.8505 2.66686 13.983L-0.0370061 15.2826ZM1.88847 16.4939H14.1115V13.4939H1.88847V16.4939ZM14.1115 16.4939C14.9398 16.4939 15.6837 16.0268 16.0411 15.2748L13.3315 13.987C13.3957 13.852 13.5036 13.7229 13.6523 13.629C13.8008 13.5353 13.9632 13.4939 14.1115 13.4939V16.4939ZM16.039 15.2793C16.3997 14.5267 16.2924 13.6539 15.7714 13.0114L13.4413 14.9009C13.2364 14.6483 13.1904 14.2815 13.3337 13.9826L16.039 15.2793ZM15.771 13.0109C15.3608 12.5055 15.1336 11.8647 15.1336 11.2134H12.1336C12.1336 12.5527 12.5973 13.8612 13.4417 14.9015L15.771 13.0109ZM15.1336 11.2134V6.87188H12.1336V11.2134H15.1336ZM15.1336 6.87188C15.1336 2.94322 11.9397 -0.250454 8.01062 -0.250454V2.74955C10.283 2.74955 12.1336 4.60029 12.1336 6.87188H15.1336Z" fill="white" mask="url(#path-1-inside-1_320_8298)"/>
<mask id="path-3-inside-2_320_8298" fill="white">
<path d="M8.01058 18.7408C6.28808 18.7408 4.88672 17.3395 4.88672 15.617V14.9922H11.1344V15.617C11.1344 17.3395 9.73308 18.7408 8.01058 18.7408ZM6.2431 16.2417C6.50113 16.969 7.19588 17.4913 8.01058 17.4913C8.82529 17.4913 9.52003 16.969 9.77807 16.2417H6.2431Z"/>
</mask>
<path d="M8.01058 18.7408C6.28808 18.7408 4.88672 17.3395 4.88672 15.617V14.9922H11.1344V15.617C11.1344 17.3395 9.73308 18.7408 8.01058 18.7408ZM6.2431 16.2417C6.50113 16.969 7.19588 17.4913 8.01058 17.4913C8.82529 17.4913 9.52003 16.969 9.77807 16.2417H6.2431Z" fill="white"/>
<path d="M4.88672 14.9922V13.4922H3.38672V14.9922H4.88672ZM11.1344 14.9922H12.6344V13.4922H11.1344V14.9922ZM6.2431 16.2417V14.7417H4.11926L4.82945 16.7433L6.2431 16.2417ZM9.77807 16.2417L11.1917 16.7433L11.9019 14.7417H9.77807V16.2417ZM8.01058 17.2408C7.11651 17.2408 6.38672 16.511 6.38672 15.617H3.38672C3.38672 18.1679 5.45966 20.2408 8.01058 20.2408V17.2408ZM6.38672 15.617V14.9922H3.38672V15.617H6.38672ZM4.88672 16.4922H11.1344V13.4922H4.88672V16.4922ZM9.63445 14.9922V15.617H12.6344V14.9922H9.63445ZM9.63445 15.617C9.63445 16.511 8.90465 17.2408 8.01058 17.2408V20.2408C10.5615 20.2408 12.6344 18.1679 12.6344 15.617H9.63445ZM4.82945 16.7433C5.29254 18.0485 6.53929 18.9913 8.01058 18.9913V15.9913C7.85247 15.9913 7.70972 15.8894 7.65675 15.7402L4.82945 16.7433ZM8.01058 18.9913C9.48187 18.9913 10.7286 18.0485 11.1917 16.7433L8.36441 15.7402C8.31145 15.8894 8.1687 15.9913 8.01058 15.9913V18.9913ZM9.77807 14.7417H6.2431V17.7417H9.77807V14.7417Z" fill="white" mask="url(#path-3-inside-2_320_8298)"/>
<mask id="path-5-inside-3_320_8298" fill="white">
<path d="M9.19915 3.48633H6.82314C6.47808 3.48633 6.19836 3.76605 6.19836 4.1111C6.19836 4.45615 6.47808 4.73587 6.82314 4.73587H9.19915C9.5442 4.73587 9.82392 4.45615 9.82392 4.1111C9.82392 3.76605 9.5442 3.48633 9.19915 3.48633Z"/>
</mask>
<path d="M9.19915 3.48633H6.82314C6.47808 3.48633 6.19836 3.76605 6.19836 4.1111C6.19836 4.45615 6.47808 4.73587 6.82314 4.73587H9.19915C9.5442 4.73587 9.82392 4.45615 9.82392 4.1111C9.82392 3.76605 9.5442 3.48633 9.19915 3.48633Z" fill="white"/>
<path d="M6.82314 4.98633H9.19915V1.98633H6.82314V4.98633ZM9.19915 4.98633C8.71578 4.98633 8.32392 4.59448 8.32392 4.1111H11.3239C11.3239 2.93762 10.3726 1.98633 9.19915 1.98633V4.98633ZM8.32392 4.1111C8.32392 3.62773 8.71578 3.23587 9.19915 3.23587V6.23587C10.3726 6.23587 11.3239 5.28458 11.3239 4.1111H8.32392ZM9.19915 3.23587H6.82314V6.23587H9.19915V3.23587ZM6.82314 3.23587C7.30651 3.23587 7.69836 3.62773 7.69836 4.1111H4.69836C4.69836 5.28458 5.64966 6.23587 6.82314 6.23587V3.23587ZM7.69836 4.1111C7.69836 4.59448 7.30651 4.98633 6.82314 4.98633V1.98633C5.64966 1.98633 4.69836 2.93762 4.69836 4.1111H7.69836Z" fill="white" mask="url(#path-5-inside-3_320_8298)"/>
</svg>
